<?xml version="1.0" encoding="UTF-8" standalone="no"?>
<!-- Created with Inkscape (http://www.inkscape.org/) -->

<svg
   xmlns:osb="http://www.openswatchbook.org/uri/2009/osb"
   xmlns:dc="http://purl.org/dc/elements/1.1/"
   xmlns:cc="http://creativecommons.org/ns#"
   xmlns:rdf="http://www.w3.org/1999/02/22-rdf-syntax-ns#"
   xmlns:svg="http://www.w3.org/2000/svg"
   xmlns="http://www.w3.org/2000/svg"
   xmlns:sodipodi="http://sodipodi.sourceforge.net/DTD/sodipodi-0.dtd"
   xmlns:inkscape="http://www.inkscape.org/namespaces/inkscape"
   width="16px"
   height="16px"
   viewBox="0 0 16 16"
   version="1.1"
   id="SVGRoot"
   inkscape:version="0.92.3 (2405546, 2018-03-11)"
   sodipodi:docname="weibird-symbolic.svg">
  <sodipodi:namedview
     id="base"
     pagecolor="#ffffff"
     bordercolor="#666666"
     borderopacity="1.0"
     inkscape:pageopacity="0.0"
     inkscape:pageshadow="2"
     inkscape:zoom="22.627417"
     inkscape:cx="5.5055928"
     inkscape:cy="8.197281"
     inkscape:document-units="px"
     inkscape:current-layer="layer1"
     showgrid="false"
     inkscape:window-width="1053"
     inkscape:window-height="1004"
     inkscape:window-x="1920"
     inkscape:window-y="628"
     inkscape:window-maximized="0"
     inkscape:grid-bbox="true"
     inkscape:pagecheckerboard="true"
     inkscape:showpageshadow="false" />
  <defs
     id="defs3771">
    <linearGradient
       id="linearGradient5993"
       osb:paint="solid">
      <stop
         style="stop-color:#000000;stop-opacity:0;"
         offset="0"
         id="stop5991" />
    </linearGradient>
  </defs>
  <metadata
     id="metadata3774">
    <rdf:RDF>
      <cc:Work
         rdf:about="">
        <dc:format>image/svg+xml</dc:format>
        <dc:type
           rdf:resource="http://purl.org/dc/dcmitype/StillImage" />
        <dc:title></dc:title>
      </cc:Work>
    </rdf:RDF>
  </metadata>
  <g
     id="layer1"
     inkscape:groupmode="layer"
     inkscape:label="Layer 1">
    <path
       inkscape:connector-curvature="0"
       id="path303"
       d="M 7.0193981,15.438902 C 4.6003984,15.293311 2.6085226,14.700558 1.7721665,13.8774 1.4535894,13.56385 1.2883697,13.286249 1.2497463,12.999626 c -0.012626,-0.09372 -0.039703,-0.170403 -0.060164,-0.170403 -0.02046,0 -0.1118823,-0.06716 -0.20316067,-0.149234 C 0.09965918,11.882596 0.55766842,9.3548198 2.145412,6.2834642 3.477157,3.7073149 5.1397608,1.6692041 6.515931,0.92584336 7.0286758,0.64887601 7.4189429,0.56317821 7.8557451,0.63163586 c 0.2308986,0.0361876 0.367428,0.0379912 0.4743699,0.006271 0.4867169,-0.14438116 1.1521516,0.0419043 1.864874,0.52206294 0.34958,0.2355123 1.118451,0.9841313 1.518546,1.47855 1.627388,2.0110479 3.074641,4.9943781 3.585132,7.3902982 0.08043,0.377477 0.100019,0.602034 0.100614,1.153272 6.72e-4,0.62151 -0.0086,0.707832 -0.101178,0.937727 -0.0606,0.150545 -0.174329,0.324003 -0.280518,0.427828 -0.138979,0.135887 -0.195407,0.236313 -0.254367,0.452711 -0.336032,1.233328 -2.059061,2.079702 -4.8334181,2.374238 -0.7438691,0.07897 -2.1504165,0.110052 -2.9104018,0.06431 z M 6.1928151,8.4025232 C 7.2784227,8.1735531 8.0280866,7.1074461 7.8633962,6.0267675 7.6872587,4.8709839 6.590932,4.0519248 5.4504961,4.2241023 4.2772301,4.4012377 3.4493741,5.5177103 3.6437074,6.660799 c 0.1439112,0.8464983 0.8201213,1.5611851 1.6461442,1.7398058 0.3513843,0.075985 0.5497967,0.076406 0.9029635,0.00192 z M 5.7528644,7.7294194 C 5.431402,7.6065889 5.1061785,7.2786226 4.9842864,6.9543609 4.6298435,6.011454 5.2908348,5.0427647 6.2886766,5.0427647 c 0.7914103,0 1.3969675,0.6027286 1.3969675,1.3904389 0,0.995203 -0.9874411,1.6574291 -1.9327797,1.2962158 z M 11.00698,8.4025232 C 12.092589,8.1735531 12.842252,7.1074461 12.677561,6.0267675 12.501424,4.8709839 11.405097,4.0519248 10.264661,4.2241023 9.3351498,4.3644359 8.5945246,5.1015999 8.4535317,6.0267675 8.2904532,7.0968679 9.0364016,8.1697419 10.104017,8.4006048 c 0.351384,0.075985 0.549796,0.076406 0.902963,0.00192 z M 9.492439,7.7294194 C 9.1709766,7.6065889 8.8457531,7.2786226 8.723861,6.9543609 8.3694181,6.011454 9.0304094,5.0427647 10.028251,5.0427647 c 0.791409,0 1.396968,0.6027286 1.396968,1.3904389 0,0.995203 -0.987441,1.6574291 -1.93278,1.2962158 z"
       style="fill:#ccd7f5;stroke-width:0.04288306" />
    <path
       inkscape:connector-curvature="0"
       id="path301"
       d="M 6.5250865,15.391626 C 5.4915777,15.301584 4.3501411,15.085703 3.5807088,14.83475 2.1763011,14.376701 1.400792,13.760604 1.258206,12.989658 1.241887,12.901418 1.212872,12.829223 1.193728,12.829223 c -0.093894,0 -0.43195581,-0.409069 -0.52190843,-0.631531 -0.0897672,-0.222003 -0.0990436,-0.311069 -0.0968622,-0.930039 0.002082,-0.590196 0.0188067,-0.755269 0.12139514,-1.197917 C 1.3140927,7.404328 3.2452901,3.904566 5.1482917,2.0018238 6.0847838,1.0654582 6.8473401,0.63614276 7.5740305,0.63614276 c 0.1765149,0 0.3666086,0.0172843 0.4224309,0.0384082 0.067836,0.025671 0.1863675,0.0165717 0.3574128,-0.0274383 0.7239085,-0.18625999 1.6406685,0.23543335 2.6247188,1.20732604 0.600319,0.5929007 1.437957,1.6563658 1.839437,2.3353495 1.330819,2.2506803 2.097081,4.0732987 2.481031,5.9013388 0.07174,0.34156 0.09497,0.603019 0.09694,1.09096 0.0023,0.578132 -0.0075,0.666971 -0.09911,0.896273 -0.05629,0.140868 -0.184337,0.342461 -0.286742,0.451431 -0.130262,0.138609 -0.198649,0.257343 -0.231016,0.401095 -0.29339,1.30305 -2.161314,2.191891 -5.1807169,2.465211 -0.5516061,0.04993 -2.4811044,0.04713 -3.0733286,-0.0045 z M 6.1898479,8.4181052 C 7.1592037,8.2169034 7.9005622,7.3103707 7.9005622,6.3262465 c 0,-1.1546802 -0.9890785,-2.1391362 -2.1491808,-2.1391362 -1.1601022,0 -2.1491808,0.984456 -2.1491808,2.1391362 0,0.9605529 0.7061295,1.8509181 1.6483304,2.0783935 0.2831304,0.068356 0.6495549,0.073609 0.9393169,0.013464 z M 5.9233159,7.7861473 C 5.5284953,7.656945 5.2212027,7.4002511 5.0317981,7.0414271 4.9287153,6.846141 4.9139921,6.7701252 4.9139921,6.4332036 c 0,-0.3369215 0.014723,-0.4129373 0.117806,-0.6082234 C 5.1814146,5.5415339 5.3928202,5.3311164 5.6775974,5.1821985 5.8738001,5.0795976 5.9501726,5.0649438 6.2886766,5.0649438 c 0.3385041,0 0.4148765,0.014654 0.6110793,0.1172547 0.2847772,0.1489179 0.4961827,0.3593354 0.6457993,0.6427817 0.1030827,0.1952861 0.117806,0.2713019 0.117806,0.6082234 0,0.3369216 -0.014723,0.4129374 -0.117806,0.6082235 C 7.2914884,7.5227497 6.8813911,7.7864252 6.353152,7.8080916 6.1758446,7.8153632 5.9824184,7.8054878 5.9233159,7.7861473 Z m 5.0806971,0.6319579 c 0.969356,-0.2012018 1.710714,-1.1077345 1.710714,-2.0918587 0,-1.1546802 -0.989078,-2.1391362 -2.149181,-2.1391362 -1.1601019,0 -2.1491804,0.984456 -2.1491804,2.1391362 0,0.9605529 0.7061295,1.8509181 1.6483304,2.0783935 0.28313,0.068356 0.649555,0.073609 0.939317,0.013464 z M 9.6628905,7.7861473 C 9.2680698,7.656945 8.9607773,7.4002511 8.7713727,7.0414271 8.6682899,6.846141 8.6535667,6.7701252 8.6535667,6.4332036 c 0,-0.3369215 0.014723,-0.4129373 0.117806,-0.6082234 C 8.9209892,5.5415339 9.1323948,5.3311164 9.417172,5.1821985 9.6133747,5.0795976 9.6897472,5.0649438 10.028251,5.0649438 c 0.338504,0 0.414877,0.014654 0.611079,0.1172547 0.284778,0.1489179 0.496183,0.3593354 0.6458,0.6427817 0.103083,0.1952861 0.117806,0.2713019 0.117806,0.6082234 0,0.3369216 -0.01472,0.4129374 -0.117806,0.6082235 -0.254067,0.4813226 -0.664164,0.7449981 -1.192403,0.7666645 -0.1773078,0.00727 -0.370734,-0.0026 -0.4298365,-0.021944 z"
       style="fill:#b5c5f1;stroke-width:0.04288306" />
    <path
       inkscape:connector-curvature="0"
       id="path299"
       d="M 6.6110537,15.393651 C 3.5819653,15.134904 1.5251033,14.23446 1.2801209,13.059901 1.2422443,12.878308 1.2063288,12.81538 1.1073483,12.757184 0.94564122,12.662108 0.75339431,12.393312 0.65398933,12.123307 0.53639556,11.803901 0.54613941,10.778464 0.67221169,10.205426 1.2193287,7.7186092 2.874277,4.5622029 4.7526007,2.4230895 5.5423118,1.5237334 6.38262,0.90760192 7.10428,0.69879015 7.2967203,0.64310838 7.437763,0.632521 7.7034837,0.65381475 c 0.191136,0.0153162 0.3765351,0.0292701 0.4119966,0.0310081 0.035462,0.001738 0.18471,-0.0200719 0.3316629,-0.0484662 0.2221985,-0.0429338 0.322271,-0.0404471 0.594313,0.0147708 1.0382758,0.21074637 2.1208908,1.17201835 3.4690988,3.08027945 0.159577,0.2258644 0.290139,0.419008 0.290139,0.4292031 0,0.010199 0.114616,0.2106643 0.254703,0.4454841 0.809192,1.3564081 1.587648,3.0981512 1.959494,4.3842341 0.534443,1.8484538 0.526287,3.0626598 -0.0239,3.5573958 -0.128317,0.115385 -0.178455,0.205047 -0.232864,0.416436 -0.310297,1.205547 -1.87924,2.017856 -4.579434,2.370969 -0.6306517,0.08247 -2.8592904,0.11903 -3.5676403,0.05852 z M 6.2868901,8.399875 c 0.380992,-0.098772 0.7212208,-0.299684 1.0042007,-0.592999 0.8195404,-0.8494797 0.8195404,-2.1117794 0,-2.9612577 C 6.4590167,3.9831495 5.1356344,3.9604686 4.2638004,4.7937337 c -0.8851679,0.8460112 -0.8851679,2.2190158 0,3.065027 0.5517928,0.5273792 1.3020355,0.7280468 2.0230897,0.5411143 z M 5.9018241,7.7663791 C 5.6166063,7.6723152 5.478778,7.5845232 5.2736588,7.3662594 5.0204692,7.0968422 4.9132009,6.8191767 4.9132009,6.4332036 c 0,-0.3922787 0.1088614,-0.6672757 0.3750442,-0.9474101 0.291355,-0.306625 0.5604848,-0.4194683 1.0004315,-0.4194683 0.4399467,0 0.7090766,0.1128433 1.0004316,0.4194683 0.2661841,0.2801344 0.3750441,0.5551314 0.3750441,0.9474101 0,0.1932206 -0.02939,0.3753342 -0.082832,0.5132692 C 7.4709611,7.2313046 7.1380315,7.5759052 6.8561369,7.697075 6.5849573,7.813639 6.1425471,7.8457676 5.9018241,7.7663791 Z M 11.101055,8.399875 c 0.380992,-0.098772 0.721221,-0.299684 1.004201,-0.592999 0.81954,-0.8494797 0.81954,-2.1117794 0,-2.9612577 -0.832074,-0.8624688 -2.1554566,-0.8851497 -3.0272906,-0.051885 -0.8851683,0.8460112 -0.8851683,2.2190158 0,3.065027 0.5517928,0.5273792 1.3020356,0.7280468 2.0230896,0.5411147 z M 9.6413987,7.7663791 C 9.3561809,7.6723152 9.2183526,7.5845232 9.0132334,7.3662594 8.7600438,7.0968422 8.6527755,6.8191767 8.6527755,6.4332036 c 0,-0.3922787 0.10886,-0.6672757 0.3750441,-0.9474101 0.2913551,-0.306625 0.5604849,-0.4194683 1.0004314,-0.4194683 0.267267,0 0.393678,0.022178 0.567461,0.099557 0.282423,0.125754 0.61623,0.4728491 0.725183,0.7540519 0.11054,0.2853054 0.11054,0.7412328 0,1.0265383 -0.110359,0.2848318 -0.443289,0.6294324 -0.725183,0.7506022 -0.271181,0.116564 -0.7135903,0.1486926 -0.9543133,0.069305 z"
       style="fill:#93adea;stroke-width:0.04288306" />
    <path
       inkscape:connector-curvature="0"
       id="path297"
       d="M 6.7400046,15.393857 C 4.7723235,15.238371 3.0658794,14.781309 2.1571412,14.166362 1.6823831,13.845091 1.2826825,13.310315 1.2815058,12.994812 1.2812371,12.913665 1.2272457,12.838402 1.0879009,12.724753 0.83392009,12.517609 0.69178133,12.267401 0.60913189,11.881978 0.28461097,10.368633 1.528131,6.9807423 3.4597013,4.1157826 3.9867789,3.3340074 4.5571743,2.6362704 5.1703893,2.0231805 5.822569,1.3711355 6.3219956,1.0029754 6.8482051,0.78635158 7.1136746,0.67706577 7.1955235,0.66357056 7.5566933,0.66952935 c 0.2245894,0.003703 0.4663722,0.007674 0.5372952,0.008811 0.070923,0.001201 0.2963532,-0.009786 0.5009566,-0.0242845 0.4184777,-0.0296551 0.6947912,0.0296966 1.110381,0.23850442 C 10.46913,1.2763252 11.495297,2.3040414 12.373603,3.564866 c 0.08123,0.1166137 0.186383,0.2570761 0.233665,0.3121388 0.04728,0.055063 0.14552,0.2099302 0.218305,0.3441511 0.07279,0.1342209 0.234479,0.4173084 0.359317,0.629083 0.594782,1.0089798 1.601395,3.2372787 1.75873,3.8932289 0.02258,0.094122 0.100252,0.392531 0.172613,0.6631313 0.194942,0.7290119 0.267566,1.2023439 0.272408,1.7754839 0.0062,0.73192 -0.148004,1.196684 -0.473549,1.427411 -0.09321,0.06606 -0.131656,0.134593 -0.149407,0.266325 -0.0571,0.423745 -0.458375,0.982442 -0.944922,1.315632 -0.776992,0.532086 -2.15538,0.954053 -3.728036,1.141267 -0.6904274,0.08219 -2.6370586,0.117687 -3.3527224,0.06114 z M 6.2671848,8.4189525 C 7.0059066,8.2496121 7.683777,7.5749096 7.8539129,6.8396397 c 0.057222,-0.2472948 0.057222,-0.7794903 0,-1.0267865 C 7.683777,5.0775847 7.0059066,4.4028822 6.2671848,4.2335419 c -0.248456,-0.056954 -0.7831507,-0.056954 -1.0316068,0 -0.7387218,0.1693403 -1.4165921,0.8440428 -1.5867277,1.5793113 -0.057222,0.2472962 -0.057222,0.7794917 0,1.0267865 0.1677436,0.7249318 0.8486467,1.4097349 1.5688761,1.5778638 0.2321465,0.05419 0.8158626,0.054997 1.0494584,0.00144 z M 5.9018241,7.7663791 C 5.6166063,7.6723152 5.478778,7.5845232 5.2736588,7.3662594 5.0204692,7.0968422 4.9132009,6.8191767 4.9132009,6.4332036 c 0,-0.3922787 0.1088614,-0.6672757 0.3750442,-0.9474101 0.291355,-0.306625 0.5604848,-0.4194683 1.0004315,-0.4194683 0.4399467,0 0.7090766,0.1128433 1.0004316,0.4194683 0.2661841,0.2801344 0.3750441,0.5551314 0.3750441,0.9474101 0,0.1932206 -0.02939,0.3753342 -0.082832,0.5132692 C 7.4709611,7.2313046 7.1380315,7.5759052 6.8561369,7.697075 6.5849573,7.813639 6.1425471,7.8457676 5.9018241,7.7663791 Z M 11.08135,8.4189525 c 0.738722,-0.1693404 1.416592,-0.8440429 1.586728,-1.5793128 0.05722,-0.2472948 0.05722,-0.7794903 0,-1.0267865 -0.170136,-0.7352685 -0.848006,-1.409971 -1.586728,-1.5793113 -0.248456,-0.056954 -0.783151,-0.056954 -1.031607,0 -0.7387218,0.1693403 -1.4165922,0.8440428 -1.5867281,1.5793113 -0.057222,0.2472962 -0.057222,0.7794917 0,1.0267865 0.1677436,0.7249318 0.8486471,1.4097349 1.5688761,1.5778638 0.232147,0.05419 0.815863,0.054997 1.049459,0.00144 z M 9.6413987,7.7663791 C 9.3561809,7.6723152 9.2183526,7.5845232 9.0132334,7.3662594 8.7600438,7.0968422 8.6527755,6.8191767 8.6527755,6.4332036 c 0,-0.3922787 0.10886,-0.6672757 0.3750441,-0.9474101 0.2913551,-0.306625 0.5604849,-0.4194683 1.0004314,-0.4194683 0.267267,0 0.393678,0.022178 0.567461,0.099557 0.282423,0.125754 0.61623,0.4728491 0.725183,0.7540519 0.11054,0.2853054 0.11054,0.7412328 0,1.0265383 -0.110359,0.2848318 -0.443289,0.6294324 -0.725183,0.7506022 -0.271181,0.116564 -0.7135903,0.1486926 -0.9543133,0.069305 z"
       style="opacity:1;fill:#cccccc;fill-opacity:1;stroke-width:0.04288306;fill-rule:nonzero" />
    <path
       inkscape:connector-curvature="0"
       id="path295"
       d="M 6.7400046,15.393857 C 4.7723235,15.238371 3.0658794,14.781309 2.1571412,14.166362 1.6823831,13.845091 1.2826825,13.310315 1.2815058,12.994812 1.2812371,12.913665 1.2272457,12.838402 1.0879009,12.724753 0.83392009,12.517609 0.69178133,12.267401 0.60913189,11.881978 0.28461097,10.368633 1.528131,6.9807423 3.4597013,4.1157826 3.9867789,3.3340074 4.5571743,2.6362704 5.1703893,2.0231805 5.822569,1.3711355 6.3219956,1.0029754 6.8482051,0.78635158 7.1136746,0.67706577 7.1955235,0.66357056 7.5566933,0.66952935 c 0.2245894,0.003703 0.4663722,0.007674 0.5372952,0.008811 0.070923,0.001201 0.2963532,-0.009786 0.5009566,-0.0242845 0.4184777,-0.0296551 0.6947912,0.0296966 1.110381,0.23850442 C 10.46913,1.2763252 11.495297,2.3040414 12.373603,3.564866 c 0.08123,0.1166137 0.186383,0.2570761 0.233665,0.3121388 0.04728,0.055063 0.14552,0.2099302 0.218305,0.3441511 0.07279,0.1342209 0.234479,0.4173084 0.359317,0.629083 0.594782,1.0089798 1.601395,3.2372787 1.75873,3.8932289 0.02258,0.094122 0.100252,0.392531 0.172613,0.6631313 0.194942,0.7290119 0.267566,1.2023439 0.272408,1.7754839 0.0062,0.73192 -0.148004,1.196684 -0.473549,1.427411 -0.09321,0.06606 -0.131656,0.134593 -0.149407,0.266325 -0.0571,0.423745 -0.458375,0.982442 -0.944922,1.315632 -0.776992,0.532086 -2.15538,0.954053 -3.728036,1.141267 -0.6904274,0.08219 -2.6370586,0.117687 -3.3527224,0.06114 z m 1.4760977,-0.896108 c 0.041896,-0.07059 0.064728,-0.128348 0.050738,-0.128348 -0.013988,0 -0.00134,-0.04332 0.028195,-0.09626 0.029495,-0.05294 0.049518,-0.110701 0.044495,-0.128349 -0.00502,-0.01765 0.013435,-0.03209 0.041016,-0.03209 0.027582,0 0.037933,-0.01215 0.023004,-0.02702 -0.014929,-0.01486 -0.00437,-0.0678 0.02346,-0.117653 0.027832,-0.04985 0.046495,-0.105075 0.041471,-0.122724 -0.00502,-0.01765 0.013435,-0.03209 0.041016,-0.03209 0.027582,0 0.037185,-0.0129 0.021341,-0.02867 -0.015843,-0.01577 6.716e-4,-0.07353 0.036811,-0.128348 0.036089,-0.05482 0.055003,-0.09968 0.04203,-0.09968 -0.012976,0 0.00631,-0.05755 0.042864,-0.127901 0.036547,-0.07034 0.065666,-0.137928 0.064708,-0.150187 -9.402e-4,-0.01226 0.028056,-0.07964 0.064476,-0.14974 0.036419,-0.0701 0.067733,-0.142091 0.069585,-0.159987 0.00185,-0.01789 0.024912,-0.07104 0.051245,-0.1181 0.026333,-0.04706 0.043768,-0.100004 0.038744,-0.117653 -0.00502,-0.01765 0.013435,-0.03209 0.041016,-0.03209 0.027582,0 0.037933,-0.01215 0.023004,-0.02702 -0.014929,-0.01486 -0.00438,-0.0678 0.02346,-0.117653 0.027832,-0.04985 0.046495,-0.105075 0.041471,-0.122724 -0.00502,-0.01765 0.013435,-0.03209 0.041016,-0.03209 0.027582,0 0.037933,-0.01216 0.023004,-0.02702 -0.014929,-0.01486 -0.00437,-0.0678 0.02346,-0.117653 0.027832,-0.04985 0.046495,-0.105076 0.041471,-0.122724 -0.00502,-0.01765 0.013435,-0.03209 0.041016,-0.03209 0.027582,0 0.037185,-0.0129 0.021341,-0.02867 -0.015844,-0.01577 6.716e-4,-0.07353 0.036811,-0.128348 0.036089,-0.05482 0.055003,-0.09968 0.04203,-0.09968 -0.012976,0 0.00631,-0.05755 0.042864,-0.127901 0.036547,-0.07034 0.061492,-0.132913 0.055431,-0.139044 -0.00606,-0.0061 0.033812,-0.08334 0.088603,-0.171578 0.054791,-0.08824 0.087691,-0.160435 0.07311,-0.160435 -0.014581,0 -0.00238,-0.04332 0.027119,-0.09626 0.029495,-0.05294 0.049518,-0.110701 0.044495,-0.128348 -0.00502,-0.01765 0.013435,-0.03209 0.041016,-0.03209 0.027582,0 0.037933,-0.01215 0.023004,-0.02702 -0.014929,-0.01486 -0.00438,-0.06781 0.02346,-0.117653 0.027832,-0.04985 0.046495,-0.105077 0.041471,-0.122724 -0.00502,-0.01765 0.013435,-0.03209 0.041016,-0.03209 0.027582,0 0.037185,-0.0129 0.021341,-0.02867 -0.015844,-0.01577 6.716e-4,-0.07353 0.036811,-0.128347 0.036089,-0.05482 0.055003,-0.09968 0.04203,-0.09968 -0.012976,0 0.00642,-0.05776 0.043096,-0.128349 L 10.05195,10.176693 H 8.1580556 c -1.8805762,0 -1.893572,6.75e-4 -1.8478872,0.08557 0.025304,0.04706 0.03521,0.08556 0.022013,0.08556 -0.013204,0 0.00453,0.04332 0.039374,0.09626 0.034853,0.05294 0.063921,0.110902 0.064595,0.128796 6.716e-4,0.01789 0.03113,0.09009 0.067676,0.160435 0.036548,0.07035 0.055837,0.127901 0.042864,0.127901 -0.012976,0 0.0081,0.04813 0.046824,0.106957 0.038724,0.05883 0.058067,0.106956 0.042984,0.106956 -0.015085,0 0.00426,0.04813 0.042984,0.106957 0.038724,0.05883 0.058067,0.106957 0.042984,0.106957 -0.015085,0 0.00426,0.04813 0.042984,0.106957 0.038724,0.05883 0.058067,0.106957 0.042984,0.106957 -0.015085,0 0.00426,0.04813 0.042984,0.106956 0.038724,0.05883 0.058067,0.106957 0.042984,0.106957 -0.015085,0 0.00426,0.04813 0.042984,0.106958 0.038724,0.05883 0.058067,0.106957 0.042984,0.106957 -0.015085,0 0.00211,0.04485 0.03819,0.09968 0.03609,0.05482 0.052655,0.112577 0.036811,0.128348 -0.015843,0.01577 -0.00625,0.02867 0.021341,0.02867 0.027581,0 0.046038,0.01444 0.041016,0.03209 -0.00502,0.01765 0.015,0.0754 0.044495,0.128348 0.029496,0.05294 0.04283,0.09626 0.029633,0.09626 -0.013191,0 0.00768,0.04813 0.046416,0.106957 0.038724,0.05883 0.058067,0.106957 0.042984,0.106957 -0.015085,0 0.00426,0.04813 0.042984,0.106957 0.038724,0.05883 0.058067,0.106956 0.042984,0.106956 -0.015085,0 0.00426,0.04813 0.042984,0.106957 0.038724,0.05883 0.058067,0.106957 0.042984,0.106957 -0.015085,0 0.00426,0.04813 0.042984,0.106957 0.038724,0.05883 0.058067,0.106957 0.042984,0.106957 -0.015084,0 0.00426,0.04813 0.042984,0.106956 0.038724,0.05883 0.058067,0.106957 0.042984,0.106957 -0.015085,0 0.00211,0.04485 0.03819,0.09968 0.03609,0.05482 0.052655,0.112577 0.036811,0.128348 -0.015843,0.01577 -0.00625,0.02867 0.021341,0.02867 0.027581,0 0.046038,0.01444 0.041016,0.03209 -0.00502,0.01765 0.015,0.0754 0.044495,0.128348 0.029496,0.05294 0.04283,0.09626 0.029633,0.09626 -0.013204,0 0.00768,0.04813 0.046416,0.106957 0.038724,0.05882 0.058067,0.106956 0.042984,0.106956 -0.015085,0 0.00107,0.04332 0.035942,0.09626 0.034853,0.05294 0.066775,0.115513 0.070939,0.139044 0.032406,0.183142 0.083664,0.189127 0.1832137,0.02139 z M 6.2671848,8.4189525 C 7.0059066,8.2496121 7.683777,7.5749096 7.8539129,6.8396397 c 0.057222,-0.2472948 0.057222,-0.7794903 0,-1.0267865 C 7.683777,5.0775847 7.0059066,4.4028822 6.2671848,4.2335419 c -0.248456,-0.056954 -0.7831507,-0.056954 -1.0316068,0 -0.7387218,0.1693403 -1.4165921,0.8440428 -1.5867277,1.5793113 -0.057222,0.2472962 -0.057222,0.7794917 0,1.0267865 0.1677436,0.7249318 0.8486467,1.4097349 1.5688761,1.5778638 0.2321465,0.05419 0.8158626,0.054997 1.0494584,0.00144 z M 5.9018241,7.7663791 C 5.6166063,7.6723152 5.478778,7.5845232 5.2736588,7.3662594 5.0204692,7.0968422 4.9132009,6.8191767 4.9132009,6.4332036 c 0,-0.3922787 0.1088614,-0.6672757 0.3750442,-0.9474101 0.291355,-0.306625 0.5604848,-0.4194683 1.0004315,-0.4194683 0.4399467,0 0.7090766,0.1128433 1.0004316,0.4194683 0.2661841,0.2801344 0.3750441,0.5551314 0.3750441,0.9474101 0,0.1932206 -0.02939,0.3753342 -0.082832,0.5132692 C 7.4709611,7.2313046 7.1380315,7.5759052 6.8561369,7.697075 6.5849573,7.813639 6.1425471,7.8457676 5.9018241,7.7663791 Z M 11.08135,8.4189525 c 0.738722,-0.1693404 1.416592,-0.8440429 1.586728,-1.5793128 0.05722,-0.2472948 0.05722,-0.7794903 0,-1.0267865 -0.170136,-0.7352685 -0.848006,-1.409971 -1.586728,-1.5793113 -0.248456,-0.056954 -0.783151,-0.056954 -1.031607,0 -0.7387218,0.1693403 -1.4165922,0.8440428 -1.5867281,1.5793113 -0.057222,0.2472962 -0.057222,0.7794917 0,1.0267865 0.1677436,0.7249318 0.8486471,1.4097349 1.5688761,1.5778638 0.232147,0.05419 0.815863,0.054997 1.049459,0.00144 z M 9.6413987,7.7663791 C 9.3561809,7.6723152 9.2183526,7.5845232 9.0132334,7.3662594 8.7600438,7.0968422 8.6527755,6.8191767 8.6527755,6.4332036 c 0,-0.3922787 0.10886,-0.6672757 0.3750441,-0.9474101 0.2913551,-0.306625 0.5604849,-0.4194683 1.0004314,-0.4194683 0.267267,0 0.393678,0.022178 0.567461,0.099557 0.282423,0.125754 0.61623,0.4728491 0.725183,0.7540519 0.11054,0.2853054 0.11054,0.7412328 0,1.0265383 -0.110359,0.2848318 -0.443289,0.6294324 -0.725183,0.7506022 -0.271181,0.116564 -0.7135903,0.1486926 -0.9543133,0.069305 z"
       style="fill:#a0a2a1;stroke-width:0.04288306" />
    <path
       inkscape:connector-curvature="0"
       id="path293"
       d="M 6.7400046,15.393857 C 4.7723235,15.238371 3.0658794,14.781309 2.1571412,14.166362 1.6823831,13.845091 1.2826825,13.310315 1.2815058,12.994812 1.2812371,12.913665 1.2272457,12.838402 1.0879009,12.724753 0.83392009,12.517609 0.69178133,12.267401 0.60913189,11.881978 0.28461097,10.368633 1.528131,6.9807423 3.4597013,4.1157826 3.9867789,3.3340074 4.5571743,2.6362704 5.1703893,2.0231805 5.822569,1.3711355 6.3219956,1.0029754 6.8482051,0.78635158 7.1136746,0.67706577 7.1955235,0.66357056 7.5566933,0.66952935 c 0.2245894,0.003703 0.4663722,0.007674 0.5372952,0.008811 0.070923,0.001201 0.2963532,-0.009786 0.5009566,-0.0242845 0.4184777,-0.0296551 0.6947912,0.0296966 1.110381,0.23850442 C 10.46913,1.2763252 11.495297,2.3040414 12.373603,3.564866 c 0.08123,0.1166137 0.186383,0.2570761 0.233665,0.3121388 0.04728,0.055063 0.14552,0.2099302 0.218305,0.3441511 0.07279,0.1342209 0.234479,0.4173084 0.359317,0.629083 0.594782,1.0089798 1.601395,3.2372787 1.75873,3.8932289 0.02258,0.094122 0.100252,0.392531 0.172613,0.6631313 0.194942,0.7290119 0.267566,1.2023439 0.272408,1.7754839 0.0062,0.73192 -0.148004,1.196684 -0.473549,1.427411 -0.09321,0.06606 -0.131656,0.134593 -0.149407,0.266325 -0.0571,0.423745 -0.458375,0.982442 -0.944922,1.315632 -0.776992,0.532086 -2.15538,0.954053 -3.728036,1.141267 -0.6904274,0.08219 -2.6370586,0.117687 -3.3527224,0.06114 z M 9.0695218,12.51839 c 0.512902,-1.205578 0.9453452,-2.225648 0.9609852,-2.266827 0.02681,-0.0706 -0.07989,-0.07487 -1.8720431,-0.07487 -1.7919869,0 -1.8988791,0.0043 -1.8724818,0.07487 0.1647871,0.440705 1.8134358,4.458669 1.8294982,4.458719 0.011821,3.5e-5 0.4411395,-0.986316 0.9540415,-2.191892 z M 6.2671848,8.4189525 C 7.0059066,8.2496121 7.683777,7.5749096 7.8539129,6.8396397 c 0.057222,-0.2472948 0.057222,-0.7794903 0,-1.0267865 C 7.683777,5.0775847 7.0059066,4.4028822 6.2671848,4.2335419 c -0.248456,-0.056954 -0.7831507,-0.056954 -1.0316068,0 -0.7387218,0.1693403 -1.4165921,0.8440428 -1.5867277,1.5793113 -0.057222,0.2472962 -0.057222,0.7794917 0,1.0267865 0.1677436,0.7249318 0.8486467,1.4097349 1.5688761,1.5778638 0.2321465,0.05419 0.8158626,0.054997 1.0494584,0.00144 z M 6.0188483,7.7794356 C 5.3763024,7.6490879 4.9203644,7.0877588 4.9203644,6.4270329 c 0,-0.7602536 0.601013,-1.3557471 1.3683122,-1.3557471 0.5450417,0 0.9876158,0.2764662 1.2313141,0.7691739 0.249043,0.5035138 0.165045,1.0895757 -0.2184764,1.5243414 -0.2750938,0.31185 -0.8589563,0.5005903 -1.282666,0.4146345 z M 11.08135,8.4189525 c 0.738722,-0.1693404 1.416592,-0.8440429 1.586728,-1.5793128 0.05722,-0.2472948 0.05722,-0.7794903 0,-1.0267865 -0.170136,-0.7352685 -0.848006,-1.409971 -1.586728,-1.5793113 -0.248456,-0.056954 -0.783151,-0.056954 -1.031607,0 -0.7387218,0.1693403 -1.4165922,0.8440428 -1.5867281,1.5793113 -0.057222,0.2472962 -0.057222,0.7794917 0,1.0267865 0.1677436,0.7249318 0.8486471,1.4097349 1.5688761,1.5778638 0.232147,0.05419 0.815863,0.054997 1.049459,0.00144 z M 9.7584229,7.7794356 C 9.115877,7.6490879 8.659939,7.0877588 8.659939,6.4270329 c 0,-0.7602536 0.601013,-1.3557471 1.368312,-1.3557471 0.545042,0 0.987616,0.2764662 1.231314,0.7691739 0.249043,0.5035138 0.165045,1.0895757 -0.218476,1.5243414 -0.275095,0.31185 -0.858956,0.5005903 -1.2826661,0.4146345 z"
       style="fill:#010101;stroke-width:0.04288306;fill-opacity:1" />
    <path
       inkscape:connector-curvature="0"
       id="path291"
       d="M 6.0188483,7.7794356 C 5.3763024,7.6490879 4.9203644,7.0877588 4.9203644,6.4270329 c 0,-0.7602536 0.601013,-1.3557471 1.3683122,-1.3557471 0.5450417,0 0.9876158,0.2764662 1.2313141,0.7691739 0.249043,0.5035138 0.165045,1.0895757 -0.2184764,1.5243414 -0.2750938,0.31185 -0.8589563,0.5005903 -1.282666,0.4146345 z m 3.7395746,0 C 9.115877,7.6490879 8.659939,7.0877588 8.659939,6.4270329 c 0,-0.7602536 0.601013,-1.3557471 1.368312,-1.3557471 0.545042,0 0.987616,0.2764662 1.231314,0.7691739 0.249043,0.5035138 0.165045,1.0895757 -0.218476,1.5243414 -0.275095,0.31185 -0.858956,0.5005903 -1.2826661,0.4146345 z"
       style="fill:#010101;stroke-width:0.04288306" />
  </g>
</svg>
